# xmcd
#
# Track frame offsets:
#	150
#	27992
#	40497
#	62762
#	84337
#	109950
#	127135
#	143150
#	165610
#	186502
#
# Disc length: 2735 seconds
#
# Revision: 1
# Processed by: cddbd v1.5.1PL0 Copyright (c) Steve Scherf et al.
# Submitted via: CDex 1.50Beta5
#
DISCID=910aad0a
DTITLE=GARGOYLE - 異人伝 Disc 3
DYEAR=1995
DGENRE=Rock
TTITLE0=EVER GREEN
TTITLE1=PROPAGANDA
TTITLE2=HALLELUYAH
TTITLE3=DYING MESSAGE
TTITLE4=Cogito ergo Sum
TTITLE5=NO GAS
TTITLE6=黒
TTITLE7=Purple Heaen
TTITLE8=懊悩の獄
TTITLE9=誄歌
EXTD=
EXTT0=
EXTT1=
EXTT2=
EXTT3=
EXTT4=
EXTT5=
EXTT6=
EXTT7=
EXTT8=
EXTT9=
PLAYORDER=
